<?xml version="1.0" encoding="utf-8"?>
<!-- Generator: Adobe Illustrator 19.2.1, SVG Export Plug-In . SVG Version: 6.00 Build 0)  -->
<svg version="1.1" id="Layer_1" xmlns="http://www.w3.org/2000/svg" xmlns:xlink="http://www.w3.org/1999/xlink" x="0px" y="0px"
	 viewBox="0 0 80 80" style="enable-background:new 0 0 80 80;" xml:space="preserve">
<style type="text/css">
	.st0{fill:#F9BF3B;}
	.st1{fill:#FFFFFF;}
</style>
<polygon class="st0" points="40,1 43.8,3.9 48.2,1.9 51.3,5.5 56,4.4 58.2,8.6 63.1,8.4 64.4,13 69.1,13.9 69.5,18.7 74,20.5 
	73.3,25.2 77.3,27.9 75.7,32.5 79,35.9 76.5,40 79,44.1 75.7,47.5 77.3,52.1 73.3,54.8 74,59.5 69.5,61.3 69.1,66.1 64.4,67 
	63.1,71.6 58.2,71.4 56,75.6 51.3,74.5 48.2,78.1 43.8,76.1 40,79 36.2,76.1 31.8,78.1 28.7,74.5 24,75.6 21.8,71.4 16.9,71.6 
	15.6,67 10.9,66.1 10.5,61.3 6,59.5 6.7,54.8 2.7,52.1 4.3,47.5 1,44.1 3.5,40 1,35.9 4.3,32.5 2.7,27.9 6.7,25.2 6,20.5 10.5,18.7 
	10.9,13.9 15.6,13 16.9,8.4 21.8,8.6 24,4.4 28.7,5.5 31.8,1.9 36.2,3.9 "/>
<ellipse class="st1" cx="40" cy="40" rx="34.2" ry="34"/>
</svg>
