<?xml version="1.0" encoding="utf-8"?>
<!-- Generator: Adobe Illustrator 19.2.1, SVG Export Plug-In . SVG Version: 6.00 Build 0)  -->
<svg version="1.1" id="Layer_1" xmlns="http://www.w3.org/2000/svg" xmlns:xlink="http://www.w3.org/1999/xlink" x="0px" y="0px"
	 viewBox="0 0 80 80" style="enable-background:new 0 0 80 80;" xml:space="preserve">
<style type="text/css">
	.st0{fill:#C8F7C5;}
</style>
<path class="st0" d="M40,1l3.8,2.9l4.3-2.1l3.1,3.7L56,4.4l2.3,4.2l4.8-0.1l1.4,4.6l4.7,0.9l0.4,4.8l4.5,1.8l-0.6,4.7l4,2.7
	l-1.6,4.5l3.3,3.5L76.5,40l2.5,4.1l-3.3,3.5l1.6,4.5l-4,2.7l0.6,4.7l-4.5,1.8l-0.4,4.8L64.4,67l-1.4,4.6l-4.8-0.1L56,75.6l-4.7-1.1
	l-3.1,3.7l-4.3-2.1L40,79l-3.8-2.9l-4.3,2.1l-3.1-3.7L24,75.6l-2.3-4.2l-4.8,0.1L15.6,67l-4.7-0.9l-0.4-4.8L6,59.5l0.6-4.7l-4-2.7
	l1.6-4.5L1,44.1L3.5,40L1,35.9l3.3-3.5l-1.6-4.5l4-2.7L6,20.5l4.5-1.8l0.4-4.8l4.7-0.9l1.4-4.6l4.8,0.1L24,4.4l4.7,1.1l3.1-3.7
	l4.3,2.1L40,1z M40,6C21.1,6,5.8,21.2,5.8,40S21.1,74,40,74c18.9,0,34.2-15.2,34.2-34S58.9,6,40,6z M40,8.3
	C22.4,8.3,8.1,22.5,8.1,40S22.4,71.7,40,71.7c17.6,0,31.9-14.2,31.9-31.7S57.6,8.3,40,8.3z"/>
</svg>
